<?xml version="1.0" encoding="UTF-8" standalone="no"?>
<svg width="15px" height="14px" viewBox="0 0 15 14" version="1.1" xmlns="http://www.w3.org/2000/svg" xmlns:xlink="http://www.w3.org/1999/xlink" xmlns:sketch="http://www.bohemiancoding.com/sketch/ns">
    <!-- Generator: Sketch Beta 3.4 (15575) - http://www.bohemiancoding.com/sketch -->
    <title>iconfont-download (1)</title>
    <desc>Created with Sketch Beta.</desc>
    <defs></defs>
    <g id="Page-1" stroke="none" stroke-width="1" fill="none" fill-rule="evenodd" sketch:type="MSPage">
        <g id="tt" sketch:type="MSArtboardGroup" transform="translate(-891.000000, -378.000000)" fill="#FFFFFF">
            <g id="iconfont-download-(1)" sketch:type="MSLayerGroup" transform="translate(891.000000, 378.000000)">
                <g id="图形" sketch:type="MSShapeGroup">
                    <path d="M11.5384615,1.75 C11.5384615,1.90798611 11.4813702,2.04470486 11.3671875,2.16015625 C11.2530048,2.27560764 11.1177885,2.33333333 10.9615385,2.33333333 C10.8052885,2.33333333 10.6700721,2.27560764 10.5558894,2.16015625 C10.4417067,2.04470486 10.3846154,1.90798611 10.3846154,1.75 C10.3846154,1.59201389 10.4417067,1.45529514 10.5558894,1.33984375 C10.6700721,1.22439236 10.8052885,1.16666667 10.9615385,1.16666667 C11.1177885,1.16666667 11.2530048,1.22439236 11.3671875,1.33984375 C11.4813702,1.45529514 11.5384615,1.59201389 11.5384615,1.75 L11.5384615,1.75 Z M13.8461538,1.75 C13.8461538,1.90798611 13.7890625,2.04470486 13.6748798,2.16015625 C13.5606971,2.27560764 13.4254808,2.33333333 13.2692308,2.33333333 C13.1129808,2.33333333 12.9777644,2.27560764 12.8635817,2.16015625 C12.749399,2.04470486 12.6923077,1.90798611 12.6923077,1.75 C12.6923077,1.59201389 12.749399,1.45529514 12.8635817,1.33984375 C12.9777644,1.22439236 13.1129808,1.16666667 13.2692308,1.16666667 C13.4254808,1.16666667 13.5606971,1.22439236 13.6748798,1.33984375 C13.7890625,1.45529514 13.8461538,1.59201389 13.8461538,1.75 L13.8461538,1.75 Z M15,3.79166667 L15,0.875 C15,0.631944444 14.9158654,0.425347222 14.7475962,0.255208333 C14.5793269,0.0850694444 14.375,0 14.1346154,0 L0.865384615,0 C0.625,0 0.420673077,0.0850694444 0.252403846,0.255208333 C0.0841346154,0.425347222 0,0.631944444 0,0.875 L0,3.79166667 C0,4.03472222 0.0841346154,4.24131944 0.252403846,4.41145833 C0.420673077,4.58159722 0.625,4.66666667 0.865384615,4.66666667 L5.05709135,4.66666667 L6.27403846,3.42708333 C6.62259615,3.08680556 7.03125,2.91666667 7.5,2.91666667 C7.96875,2.91666667 8.37740385,3.08680556 8.72596154,3.42708333 L9.95192308,4.66666667 L14.1346154,4.66666667 C14.375,4.66666667 14.5793269,4.58159722 14.7475962,4.41145833 C14.9158654,4.24131944 15,4.03472222 15,3.79166667 L15,3.79166667 Z M12.0703125,8.97786458 C12.172476,8.72873264 12.1304087,8.51605903 11.9441106,8.33984375 L7.90564904,4.25651042 C7.79747596,4.14105903 7.66225962,4.08333333 7.5,4.08333333 C7.33774038,4.08333333 7.20252404,4.14105903 7.09435096,4.25651042 L3.05588942,8.33984375 C2.86959135,8.51605903 2.82752404,8.72873264 2.9296875,8.97786458 C3.03185096,9.21484375 3.20913462,9.33333333 3.46153846,9.33333333 L5.76923077,9.33333333 L5.76923077,13.4166667 C5.76923077,13.5746528 5.82632212,13.7113715 5.94050481,13.8268229 C6.0546875,13.9422743 6.18990385,14 6.34615385,14 L8.65384615,14 C8.81009615,14 8.9453125,13.9422743 9.05949519,13.8268229 C9.17367788,13.7113715 9.23076923,13.5746528 9.23076923,13.4166667 L9.23076923,9.33333333 L11.5384615,9.33333333 C11.7908654,9.33333333 11.968149,9.21484375 12.0703125,8.97786458 L12.0703125,8.97786458 Z" id="Shape" transform="translate(7.500000, 7.000000) scale(1, -1) translate(-7.500000, -7.000000) "></path>
                </g>
            </g>
        </g>
    </g>
</svg>