<?xml version="1.0" encoding="UTF-8" standalone="no"?>
<svg width="16px" height="15px" viewBox="0 0 16 15" version="1.1" xmlns="http://www.w3.org/2000/svg" xmlns:xlink="http://www.w3.org/1999/xlink" xmlns:sketch="http://www.bohemiancoding.com/sketch/ns">
    <!-- Generator: Sketch Beta 3.4 (15575) - http://www.bohemiancoding.com/sketch -->
    <title>iconfont-github copy</title>
    <desc>Created with Sketch Beta.</desc>
    <defs></defs>
    <g id="Page-1" stroke="none" stroke-width="1" fill="none" fill-rule="evenodd" sketch:type="MSPage">
        <g id="tt" sketch:type="MSArtboardGroup" transform="translate(-858.000000, -377.000000)" fill="#FFFFFF">
            <g id="iconfont-github-copy" sketch:type="MSLayerGroup" transform="translate(858.000000, 377.000000)">
                <g id="图形" sketch:type="MSShapeGroup">
                    <path d="M15.8438498,7.31589662 C15.8438498,5.64176204 15.34035,4.13602369 14.3333504,2.79868157 C13.3263508,1.46133946 12.0254805,0.535910104 10.4307396,0.0223935145 C10.2450909,-0.0109063952 10.10937,0.0123556868 10.0235768,0.0921797607 C9.93778354,0.172003835 9.89489295,0.272101986 9.89490498,0.392474215 L9.89490498,2.50349941 C9.89490498,3.15061248 9.71629343,3.6242112 9.35907032,3.92429556 C9.75104617,3.96442353 10.1034275,4.02439955 10.4162142,4.10422362 C10.729001,4.18404769 11.0521269,4.31402589 11.3855921,4.49415821 C11.7190573,4.67429053 11.9975304,4.89604482 12.2210113,5.15942108 C12.4444923,5.42279733 12.6266224,5.77303582 12.7674017,6.21013653 C12.908181,6.64723723 12.9785707,7.14922199 12.9785707,7.7160908 C12.9785707,8.52328389 12.7071348,9.210309 12.164263,9.77716613 C12.418539,10.3841629 12.391046,11.06436 12.0817838,11.8177573 C11.8890979,11.8779492 11.6106249,11.8412411 11.2463646,11.707633 C10.8821043,11.5740248 10.5660155,11.4271866 10.2980982,11.2671182 L9.90612835,11.0270157 C9.26691359,11.20032 8.6070204,11.2869721 7.92644878,11.2869721 C7.24587716,11.2869721 6.58598397,11.20032 5.94676921,11.0270157 C5.83678501,11.1004319 5.69073085,11.1904981 5.50860672,11.2972142 C5.3264826,11.4039303 5.0394266,11.5324145 4.64743871,11.6826668 C4.25545083,11.8329191 3.95981791,11.8779551 3.76053996,11.8177748 C3.45786988,11.0639456 3.43389541,10.3837486 3.68861657,9.77718364 C3.14574474,9.21031483 2.87430883,8.52328972 2.87430883,7.71610831 C2.87430883,7.1492395 2.94469848,6.64896467 3.08547778,6.21528383 C3.22625707,5.78160299 3.40663093,5.4313645 3.62659933,5.16456838 C3.84656774,4.89777226 4.12328453,4.67431387 4.45674971,4.49419323 C4.79021488,4.31407258 5.11334084,4.18409438 5.42612759,4.10425864 C5.73891434,4.02442289 6.09129565,3.96444687 6.4832715,3.92433057 C6.20831701,3.68443816 6.03982213,3.34103358 5.97778685,2.89411681 C5.83349498,2.82752866 5.67885789,2.77758463 5.51387557,2.74428472 C5.34889325,2.71098481 5.15290532,2.69433485 4.92591179,2.69433485 C4.69891825,2.69433485 4.47389151,2.76604696 4.25083156,2.90947118 C4.02777162,3.0528954 3.83706457,3.26141376 3.67871041,3.53502627 C3.54804778,3.7484585 3.38131519,3.92176276 3.17851265,4.05493905 C2.9757101,4.18811535 2.80567546,4.26814952 2.66840873,4.29504156 L2.46185904,4.32513753 C2.31756718,4.32513753 2.21792219,4.31019751 2.16292407,4.28031747 C2.10792596,4.25043742 2.09076611,4.21201939 2.11144454,4.16506336 C2.13212296,4.11810734 2.1631406,4.07136724 2.20449745,4.02484308 C2.2458543,3.97831891 2.29050719,3.93840688 2.33845612,3.90510697 L2.41037951,3.8551571 C2.56172056,3.78856896 2.71129932,3.66179469 2.85911578,3.47483432 C3.00693224,3.28787394 3.11515414,3.11777361 3.1837815,2.96453333 L3.28672252,2.73467292 C3.3760283,2.48112439 3.52736334,2.27602006 3.74072764,2.11935991 C3.95409194,1.96269977 4.18439355,1.86260162 4.43163246,1.81906546 C4.67887136,1.7755293 4.9177559,1.75226722 5.14828606,1.74927921 C5.37881622,1.74629121 5.56952327,1.7580273 5.72040721,1.78448748 L5.95730691,1.82482554 C5.95730691,1.57127701 5.9590692,1.27439659 5.9625938,0.934184261 C5.96611839,0.593971934 5.96788069,0.413839615 5.96788069,0.393787303 C5.96788069,0.273835262 5.9232278,0.173737111 5.83392203,0.0934928487 C5.74461625,0.0132485866 5.607139,-0.0100134954 5.42149029,0.0237066024 C3.82674941,0.53721152 2.52587916,1.46264087 1.51887953,2.79999466 C0.5118799,4.13734845 0.00838008461,5.6430868 0.00838008461,7.31720971 C0.00838008461,8.71132391 0.362301143,9.99680781 1.07014326,11.1736614 C1.77798538,12.350515 2.73856982,13.2825565 3.95189659,13.9697858 C5.16522336,14.6570152 6.49007409,15.0004198 7.92644878,14.9999996 C9.36282347,14.9995794 10.6876742,14.6561748 11.901001,13.9697858 C13.1143277,13.2833969 14.0749122,12.3513554 14.7827543,11.1736614 C15.4905964,9.99596743 15.8445175,8.71048354 15.8445175,7.31720971 L15.8438498,7.31589662 Z" id="Shape" transform="translate(7.926449, 7.503845) scale(1, -1) translate(-7.926449, -7.503845) "></path>
                </g>
            </g>
        </g>
    </g>
</svg>